<svg xmlns="http://www.w3.org/2000/svg" xmlns:xlink="http://www.w3.org/1999/xlink" width="512" height="494.931" viewBox="0 0 512 494.931"><defs><linearGradient id="a" y1="1.127" x2="0.959" y2="-0.804" gradientUnits="objectBoundingBox"><stop offset="0" stop-color="#0070d6"/><stop offset="1" stop-color="#00a8ed"/></linearGradient></defs><g transform="translate(0 -0.499)"><path d="M435.016,203.379a7.324,7.324,0,0,0,7.332-7.312v-25.68a7.32,7.32,0,0,0-7.312-7.328H7.332A7.321,7.321,0,0,0,0,170.371V375.68a7.32,7.32,0,0,0,7.313,7.328H298.156a7.33,7.33,0,1,0,0-14.66H14.66V177.719H427.687v18.332A7.32,7.32,0,0,0,435,203.379Zm0,0" fill="url(#a)"/><path d="M37.621,53a7.371,7.371,0,0,0-3.234,4.6L17.277,134.582a7.335,7.335,0,0,0,14.32,3.184L47.105,67.957l334.98,75.367a6.844,6.844,0,0,0,1.617.18,7.33,7.33,0,0,0,1.6-14.48L43.152,52.039A7.361,7.361,0,0,0,37.621,53Zm0,0" fill="url(#a)"/><path d="M125.105,45.367l14.039-28.09,198.949,82.894a7.35,7.35,0,0,0,5.66-13.566L138.468,1.066a7.357,7.357,0,0,0-9.41,3.5L111.949,38.781a7.356,7.356,0,0,0,12.941,7c.078-.141.148-.281.215-.426Zm0,0" fill="url(#a)"/><path d="M356.27,204.6a7.329,7.329,0,0,0-7.328-7.332H281.051a7.33,7.33,0,1,0,0,14.66h67.891A7.329,7.329,0,0,0,356.27,204.6Zm0,0" fill="url(#a)"/><path d="M212.621,348.3a75.271,75.271,0,1,0-75.273-75.27A75.269,75.269,0,0,0,212.621,348.3Zm0-136.859a61.588,61.588,0,1,1-61.59,61.586,61.588,61.588,0,0,1,61.59-61.586Zm0,0" fill="url(#a)"/><path d="M417.91,221.711c-45.336,0-94.094,10.707-94.094,34.215V461.215c0,23.508,48.758,34.215,94.094,34.215S512,484.723,512,461.215V255.926c0-23.508-48.758-34.215-94.09-34.215Zm76.98,205.16c-1.289,4.746-26.941,17.234-76.98,17.234S342.219,431.617,340.926,427V413.555C359.129,422.723,389.2,427,417.91,427s58.789-4.32,76.98-13.457Zm0-34.215c-1.289,4.75-26.941,17.238-76.98,17.238s-75.691-12.488-76.984-17.109V379.34c18.2,9.168,48.27,13.445,76.984,13.445s58.789-4.32,76.98-13.453Zm0-34.215c-1.289,4.75-26.941,17.238-76.98,17.238s-75.691-12.488-76.984-17.109V345.125c18.2,9.168,48.27,13.445,76.984,13.445s58.789-4.32,76.98-13.453Zm0-34.215c-1.289,4.746-26.941,17.234-76.98,17.234s-75.691-12.488-76.984-17.105V310.91c18.2,9.125,48.27,13.445,76.984,13.445s58.789-4.32,76.98-13.453Zm0-34.215c-1.289,4.746-26.941,17.234-76.98,17.234s-75.691-12.488-76.984-17.105V276.7c18.2,9.125,48.27,13.445,76.984,13.445s58.789-4.32,76.98-13.453Zm-76.98-51.2c49.609,0,75.273,12.266,76.98,17.109-1.707,4.84-27.371,17.106-76.98,17.106-49.965,0-75.609-12.453-76.984-16.953v-.051c1.375-4.762,27.02-17.211,76.984-17.211Zm0,239.5c-50.043,0-75.691-12.488-76.984-17.105V447.77c18.2,9.168,48.27,13.445,76.984,13.445s58.789-4.32,76.98-13.457v13.328C493.6,465.832,467.949,478.32,417.91,478.32Zm0,0" fill="url(#a)"/><path d="M82.73,211.934h61.457a7.33,7.33,0,1,0,0-14.66H79.754a7.348,7.348,0,0,0-5.133,2.078l-38.207,37.27a9.2,9.2,0,0,0-2.207,5.988v60.832a7.351,7.351,0,0,0,1.914,4.945L70.875,346.4a7.342,7.342,0,0,0,5.414,2.387h67.9a7.33,7.33,0,0,0,0-14.66H79.531L48.875,300.594V245Zm0,0" fill="url(#a)"/><path d="M216.9,285.863H195.511a8.553,8.553,0,0,0,0,17.105h8.555a8.553,8.553,0,1,0,17.105,0v-.383a19.914,19.914,0,0,0,17.109-18.816,20.428,20.428,0,0,0-21.387-19.289h-8.551c-2.66,0-4.277-1.488-4.277-2.141s1.613-2.137,4.277-2.137h21.383a8.553,8.553,0,1,0,0-17.105h-8.555a8.553,8.553,0,1,0-17.105,0v.383a19.907,19.907,0,0,0-17.105,18.82,20.421,20.421,0,0,0,21.383,19.285H216.9c2.66,0,4.277,1.488,4.277,2.141S219.558,285.863,216.9,285.863Zm0,0" fill="url(#a)"/></g></svg>