<svg xmlns="http://www.w3.org/2000/svg" xmlns:xlink="http://www.w3.org/1999/xlink" width="477.867" height="512.001" viewBox="0 0 477.867 512.001"><defs><linearGradient id="a" x1="-0.168" y1="0.422" x2="1.441" y2="-0.89" gradientUnits="objectBoundingBox"><stop offset="0" stop-color="#0070d6"/><stop offset="1" stop-color="#00a8ed"/></linearGradient><linearGradient id="b" x1="-0.179" y1="2.143" x2="1.99" y2="-4.091" xlink:href="#a"/><linearGradient id="c" x1="-1.715" y1="-0.123" x2="5.411" y2="-8.436" xlink:href="#a"/><linearGradient id="d" x1="-2.327" y1="0.495" x2="4.798" y2="-7.818" xlink:href="#a"/><linearGradient id="e" x1="-2.94" y1="1.114" x2="4.185" y2="-7.199" xlink:href="#a"/><linearGradient id="f" x1="-2.179" y1="-1.831" x2="4.947" y2="-10.144" xlink:href="#a"/><linearGradient id="g" x1="-2.791" y1="-1.213" x2="4.334" y2="-9.526" xlink:href="#a"/><linearGradient id="h" x1="-3.636" y1="-0.399" x2="3.489" y2="-4.236" xlink:href="#a"/><linearGradient id="i" x1="-2.643" y1="-3.539" x2="4.483" y2="-11.852" xlink:href="#a"/><linearGradient id="j" x1="-3.255" y1="-2.92" x2="3.87" y2="-11.234" xlink:href="#a"/><linearGradient id="k" x1="-0.013" y1="0.878" x2="1.071" y2="0.046" xlink:href="#a"/><linearGradient id="l" x1="-0.032" y1="23.801" x2="2.344" y2="-1.139" xlink:href="#a"/><linearGradient id="m" x1="-0.208" y1="17.945" x2="2.167" y2="-6.994" xlink:href="#a"/><linearGradient id="n" x1="-0.986" y1="16.264" x2="1.639" y2="-8.675" xlink:href="#a"/><linearGradient id="o" x1="-1.181" y1="10.409" x2="1.444" y2="-14.531" xlink:href="#a"/><linearGradient id="p" x1="-1.377" y1="4.553" x2="1.248" y2="-20.386" xlink:href="#a"/><linearGradient id="q" x1="-1.572" y1="-1.303" x2="1.053" y2="-26.242" xlink:href="#a"/></defs><g transform="translate(0 0)"><path d="M25.6,187.734A25.6,25.6,0,0,0,0,213.336V486.4A25.6,25.6,0,0,0,25.6,512H238.934a25.6,25.6,0,0,0,25.6-25.6V213.332a25.6,25.6,0,0,0-25.6-25.6Zm221.867,25.6V486.4a8.534,8.534,0,0,1-8.535,8.535H25.6a8.534,8.534,0,0,1-8.535-8.535V213.332A8.536,8.536,0,0,1,25.6,204.8H238.933A8.533,8.533,0,0,1,247.469,213.332Zm0,0" fill="url(#a)"/><path d="M221.867,221.867H42.668a8.53,8.53,0,0,0-8.531,8.531v51.2a8.532,8.532,0,0,0,8.531,8.531h179.2A8.533,8.533,0,0,0,230.4,281.6V230.4A8.533,8.533,0,0,0,221.867,221.867Zm-8.531,51.2H51.2V238.933H213.336Zm0,0" fill="url(#b)"/><path d="M85.336,307.2H42.668a8.531,8.531,0,0,0-8.531,8.535v34.133a8.53,8.53,0,0,0,8.531,8.531H85.336a8.532,8.532,0,0,0,8.531-8.531V315.734A8.533,8.533,0,0,0,85.336,307.2ZM76.8,341.332H51.2V324.265H76.8Zm0,0" fill="url(#c)"/><path d="M153.6,307.2H110.934a8.533,8.533,0,0,0-8.531,8.535v34.133a8.53,8.53,0,0,0,8.531,8.531H153.6a8.532,8.532,0,0,0,8.531-8.531V315.734A8.531,8.531,0,0,0,153.6,307.2Zm-8.535,34.133h-25.6V324.265h25.6Zm0,0" fill="url(#d)"/><path d="M221.867,307.2H179.2a8.533,8.533,0,0,0-8.531,8.535v34.133A8.53,8.53,0,0,0,179.2,358.4h42.668a8.533,8.533,0,0,0,8.535-8.531V315.734A8.534,8.534,0,0,0,221.867,307.2Zm-8.531,34.133h-25.6V324.265h25.6Zm0,0" fill="url(#e)"/><path d="M85.336,366.934H42.668a8.53,8.53,0,0,0-8.531,8.531V409.6a8.533,8.533,0,0,0,8.531,8.535H85.336a8.533,8.533,0,0,0,8.531-8.535V375.465A8.532,8.532,0,0,0,85.336,366.934ZM76.8,401.067H51.2V384H76.8Zm0,0" fill="url(#f)"/><path d="M153.6,366.934H110.934a8.532,8.532,0,0,0-8.531,8.531V409.6a8.533,8.533,0,0,0,8.531,8.535H153.6a8.533,8.533,0,0,0,8.531-8.535V375.465A8.53,8.53,0,0,0,153.6,366.934Zm-8.535,34.133h-25.6V384h25.6Zm0,0" fill="url(#g)"/><path d="M221.867,366.934H179.2a8.532,8.532,0,0,0-8.531,8.531v93.867a8.533,8.533,0,0,0,8.531,8.535h42.668a8.536,8.536,0,0,0,8.535-8.535V375.465a8.533,8.533,0,0,0-8.535-8.531ZM213.336,460.8h-25.6V384h25.6Zm0,0" fill="url(#h)"/><path d="M85.336,426.668H42.668a8.53,8.53,0,0,0-8.531,8.531v34.133a8.533,8.533,0,0,0,8.531,8.535H85.336a8.533,8.533,0,0,0,8.531-8.535V435.2A8.532,8.532,0,0,0,85.336,426.668ZM76.8,460.8H51.2V443.734H76.8Zm0,0" fill="url(#i)"/><path d="M153.6,426.668H110.934A8.532,8.532,0,0,0,102.4,435.2v34.133a8.533,8.533,0,0,0,8.531,8.535H153.6a8.533,8.533,0,0,0,8.531-8.535V435.2A8.53,8.53,0,0,0,153.6,426.668ZM145.067,460.8h-25.6V443.734h25.6Zm0,0" fill="url(#j)"/><path d="M290.133,512h179.2a8.532,8.532,0,0,0,8.531-8.531V153.6a8.467,8.467,0,0,0-.664-3.285,8.342,8.342,0,0,0-1.844-2.758L330.293,2.493A8.342,8.342,0,0,0,327.536.649,8.442,8.442,0,0,0,324.27,0H93.868a8.532,8.532,0,0,0-8.531,8.531v153.6a8.533,8.533,0,1,0,17.066,0V17.068H315.735V153.6a8.532,8.532,0,0,0,8.531,8.531H460.8v332.8H290.133a8.533,8.533,0,0,0,0,17.066ZM332.8,29.133,448.735,145.067H332.8Zm0,0" fill="url(#k)"/><path d="M128,93.867H290.133a8.533,8.533,0,1,0,0-17.066H128a8.533,8.533,0,0,0,0,17.066Zm0,0" fill="url(#l)"/><path d="M298.668,153.6a8.534,8.534,0,0,0-8.535-8.535H128a8.533,8.533,0,0,0,0,17.066H290.133A8.533,8.533,0,0,0,298.668,153.6Zm0,0" fill="url(#m)"/><path d="M435.2,213.332H290.133a8.533,8.533,0,0,0,0,17.066H435.2a8.533,8.533,0,0,0,0-17.066Zm0,0" fill="url(#n)"/><path d="M435.2,281.6H290.133a8.533,8.533,0,0,0,0,17.066H435.2a8.533,8.533,0,1,0,0-17.066Zm0,0" fill="url(#o)"/><path d="M435.2,349.867H290.133a8.533,8.533,0,0,0,0,17.066H435.2a8.533,8.533,0,1,0,0-17.066Zm0,0" fill="url(#p)"/><path d="M435.2,418.133H290.133a8.533,8.533,0,0,0,0,17.066H435.2a8.533,8.533,0,0,0,0-17.066Zm0,0" fill="url(#q)"/></g></svg>